<svg version="1.1" id="Layer_1" xmlns="http://www.w3.org/2000/svg" xmlns:xlink="http://www.w3.org/1999/xlink" x="0px" y="0px"
	 width="100%" viewBox="0 0 395 403" enable-background="new 0 0 395 403" xml:space="preserve">
<path fill="#FCFBF6" opacity="1.000000" stroke="none" 
	d="
M1.000000,133.000000 
	C1.000000,88.680397 1.000000,44.860794 1.000000,1.020594 
	C132.611694,1.020594 264.223389,1.020594 395.917542,1.020594 
	C395.917542,135.236237 395.917542,269.472565 395.917542,403.854431 
	C264.333435,403.854431 132.666748,403.854431 1.000000,403.854431 
	C1.000000,313.776672 1.000000,223.638336 1.000000,133.000000 
M196.967957,395.157928 
	C209.303650,395.096619 221.639328,395.035309 234.613327,394.985260 
	C235.245758,394.467438 235.878174,393.949615 237.032379,393.449493 
	C237.550919,393.399109 238.069473,393.348755 239.044342,393.955536 
	C243.709564,394.254883 248.374802,394.554199 253.914780,394.927948 
	C261.593262,394.991638 269.271637,395.096619 276.950195,395.112000 
	C313.041901,395.184265 349.133698,395.232056 385.225433,395.287933 
	C387.123169,395.290863 389.020905,395.288300 390.892883,395.288300 
	C391.045624,393.694702 391.164093,393.038147 391.163513,392.381744 
	C391.124298,349.252838 391.089417,306.123901 391.021515,262.995026 
	C390.988190,241.845657 390.902100,220.696350 390.804321,199.547165 
	C390.796814,197.923767 391.716125,195.538544 389.100098,195.481552 
	C389.796661,193.206055 391.097015,190.931763 391.101501,188.654922 
	C391.214050,131.492615 391.190186,74.330048 391.190399,17.167522 
	C391.190399,15.685960 391.190399,14.204397 391.190399,12.359353 
	C383.452362,11.902220 376.012726,11.253517 368.561829,11.073812 
	C358.527710,10.831807 348.484802,10.904170 338.445831,10.925406 
	C317.950989,10.968760 297.456268,11.068087 276.498718,10.996530 
	C276.498718,10.996530 276.018768,11.071947 275.089172,10.922496 
	C259.047913,10.995978 243.006683,11.069461 226.502747,11.068061 
	C226.502747,11.068061 226.048218,11.182605 225.111755,11.064012 
	C216.066757,11.102476 207.021759,11.140941 197.467499,11.057437 
	C197.293900,11.074049 197.120285,11.090660 196.033432,10.914871 
	C179.346313,10.973361 162.659180,11.031850 145.046951,10.951653 
	C125.050476,11.015603 105.054008,11.079554 84.123528,10.992126 
	C69.405388,11.034363 54.687244,11.076599 39.048653,10.952332 
	C29.289299,10.944442 19.529902,10.950377 9.770632,10.917556 
	C7.698990,10.910588 5.523138,10.638469 6.080626,14.696586 
	C6.098051,19.350740 6.130490,24.004894 6.130603,28.659048 
	C6.131902,82.166405 6.121268,135.673767 6.156443,189.181107 
	C6.157622,190.974945 6.608347,192.768478 6.356965,195.438370 
	C6.246394,216.719040 6.065108,237.999649 6.040182,259.280426 
	C5.990456,301.733307 5.999876,344.186340 6.051363,386.639221 
	C6.060826,394.442749 6.955050,395.192596 14.759506,395.199646 
	C56.562256,395.237549 98.365044,395.311310 140.167755,395.279114 
	C158.477097,395.265015 176.786255,395.028595 195.578094,394.947144 
	C195.578094,394.947144 196.063400,394.930634 196.967957,395.157928 
z"/>
<path fill="#58C690" opacity="1.000000" stroke="none" 
	d="
M226.965439,11.142944 
	C243.006683,11.069461 259.047913,10.995978 275.633698,11.148891 
	C276.439331,11.298312 276.700409,11.221336 276.961517,11.144359 
	C297.456268,11.068087 317.950989,10.968760 338.445831,10.925406 
	C348.484802,10.904170 358.527710,10.831807 368.561829,11.073812 
	C376.012726,11.253517 383.452362,11.902220 391.190399,12.359353 
	C391.190399,14.204397 391.190399,15.685960 391.190399,17.167522 
	C391.190186,74.330048 391.214050,131.492615 391.101501,188.654922 
	C391.097015,190.931763 389.796661,193.206055 388.273193,195.693359 
	C378.058777,195.948074 368.671265,195.990982 358.847046,195.938812 
	C350.645447,195.513138 342.882690,194.973434 335.115295,194.895584 
	C319.039581,194.734421 302.961395,194.818970 286.564270,194.555939 
	C275.221466,194.213882 264.198761,194.100342 253.175781,194.064148 
	C252.458267,194.061783 251.738800,194.653351 250.552994,195.023575 
	C234.099625,195.086487 218.113388,195.122147 202.127625,195.051758 
	C200.797409,195.045898 199.470367,194.324066 198.426758,193.638763 
	C198.807419,186.614670 199.017166,179.885635 198.953751,173.159164 
	C198.918869,169.459183 198.424316,165.763519 198.077423,161.596436 
	C198.021240,122.291466 198.032745,83.455963 197.990448,44.620514 
	C197.989120,43.404732 197.431870,42.189560 197.077240,40.554375 
	C197.305740,33.798752 197.590759,27.462854 197.920715,20.667229 
	C197.969360,17.198133 197.973068,14.188769 197.976776,11.179405 
	C207.021759,11.140941 216.066757,11.102476 225.670456,11.259367 
	C226.229156,11.454721 226.664154,11.508245 226.664154,11.508245 
	C226.664154,11.508245 226.965439,11.142944 226.965439,11.142944 
z"/>
<path fill="#FED848" opacity="1.000000" stroke="none" 
	d="
M359.283783,196.033875 
	C368.671265,195.990982 378.058777,195.948074 387.969177,195.876801 
	C391.716125,195.538544 390.796814,197.923767 390.804321,199.547165 
	C390.902100,220.696350 390.988190,241.845657 391.021515,262.995026 
	C391.089417,306.123901 391.124298,349.252838 391.163513,392.381744 
	C391.164093,393.038147 391.045624,393.694702 390.892883,395.288300 
	C389.020905,395.288300 387.123169,395.290863 385.225433,395.287933 
	C349.133698,395.232056 313.041901,395.184265 276.950195,395.112000 
	C269.271637,395.096619 261.593262,394.991638 253.357300,394.512756 
	C248.062561,393.831177 243.325287,393.564758 238.588013,393.298370 
	C238.069473,393.348755 237.550919,393.399109 236.270416,393.306030 
	C225.683548,393.111755 215.856979,393.149200 206.034592,392.964050 
	C202.419937,392.895935 198.815170,392.302216 195.138184,391.588684 
	C195.115845,390.501740 195.161255,389.774414 195.413757,389.035004 
	C195.620834,389.022949 196.035126,389.001038 196.305939,388.740173 
	C196.385391,385.986328 196.194016,383.493286 195.940659,380.664612 
	C195.932922,379.879486 195.987167,379.430023 196.283127,378.802917 
	C196.378647,377.762756 196.232452,376.900238 196.022659,375.696716 
	C196.004745,374.897614 196.050430,374.439484 196.461899,373.906799 
	C199.628616,369.281586 199.108536,364.671844 197.020081,359.690918 
	C197.014221,358.886444 197.061447,358.426178 197.257660,357.889923 
	C197.406631,357.813934 197.516525,357.383850 197.516525,357.383850 
	C197.516525,357.383850 197.168427,357.053192 197.131195,356.643982 
	C197.377533,354.767273 197.651672,353.297882 197.946030,351.832550 
	C203.331970,325.020325 211.132919,299.333069 226.649033,276.139832 
	C252.395401,237.654556 288.027954,213.651611 331.974060,201.212067 
	C340.854340,198.698364 350.169250,197.720047 359.283783,196.033875 
M303.760986,393.005096 
	C294.212769,393.005096 284.664581,393.005096 275.116364,393.005096 
	C275.118530,393.241302 275.120667,393.477539 275.122833,393.713745 
	C285.384064,393.713745 295.645294,393.713745 307.313873,393.713745 
	C305.468597,393.243042 305.010132,393.126099 303.760986,393.005096 
z"/>
<path fill="#55A8FA" opacity="1.000000" stroke="none" 
	d="
M195.206665,389.047058 
	C195.161255,389.774414 195.115845,390.501740 195.072296,391.953979 
	C195.081284,393.416992 195.088394,394.155060 195.095505,394.893158 
	C176.786255,395.028595 158.477097,395.265015 140.167755,395.279114 
	C98.365044,395.311310 56.562256,395.237549 14.759506,395.199646 
	C6.955050,395.192596 6.060826,394.442749 6.051363,386.639221 
	C5.999876,344.186340 5.990456,301.733307 6.040182,259.280426 
	C6.065108,237.999649 6.246394,216.719040 6.973058,195.103210 
	C11.354273,194.995865 15.119394,195.223679 19.083858,195.757797 
	C19.843983,196.350052 20.378098,196.803970 20.969376,196.897842 
	C50.494633,201.585327 78.156639,211.419586 103.123131,227.933533 
	C120.897232,239.690109 136.601044,253.925064 150.074966,270.565979 
	C176.460297,303.153046 191.185623,340.409882 195.147186,382.465637 
	C195.135620,384.950104 195.171143,386.998566 195.206665,389.047058 
z"/>
<path fill="#2B4B70" opacity="1.000000" stroke="none" 
	d="
M18.884516,195.451508 
	C15.119394,195.223679 11.354273,194.995865 7.219339,194.665100 
	C6.608347,192.768478 6.157622,190.974945 6.156443,189.181107 
	C6.121268,135.673767 6.131902,82.166405 6.130603,28.659048 
	C6.130490,24.004894 6.098051,19.350740 6.587863,14.181608 
	C8.905401,13.111105 10.696294,12.168079 12.529819,12.076245 
	C17.133930,11.845643 21.760969,12.114408 26.371935,11.967292 
	C30.908728,11.822542 35.437057,11.412481 39.969101,11.118835 
	C54.687244,11.076599 69.405388,11.034363 84.831795,11.328047 
	C86.720238,11.805821 87.900414,11.947676 89.375687,12.369070 
	C107.528656,12.749573 125.386505,12.858772 143.244522,12.913742 
	C143.809830,12.915482 144.376846,12.359020 145.167984,11.961745 
	C145.695709,11.686440 145.888763,11.429650 145.972061,11.090340 
	C162.659180,11.031850 179.346313,10.973361 196.211426,11.285721 
	C194.022354,11.886217 191.655304,12.115864 189.288269,12.345511 
	C189.304581,12.502283 189.320908,12.659055 189.337234,12.815827 
	C191.731354,12.983032 194.125458,13.150238 196.279617,13.300685 
	C196.279617,18.853642 196.279617,23.915499 196.279617,30.288012 
	C196.960938,26.377728 197.418365,23.752344 197.875793,21.126961 
	C197.590759,27.462854 197.305740,33.798752 197.030212,40.973953 
	C196.011169,47.184814 194.641357,52.517010 194.016251,57.935120 
	C191.908401,76.205360 185.642120,93.065681 175.961960,108.468971 
	C164.229645,127.137726 150.214218,144.142441 132.500244,157.441376 
	C122.640999,164.843307 111.890930,171.298584 100.867767,176.838211 
	C91.192696,181.700333 80.723335,185.166656 70.331696,188.361023 
	C61.688446,191.017914 52.723183,192.926620 43.762047,194.161896 
	C35.566017,195.291672 27.184366,195.074890 18.884516,195.451508 
z"/>
<path fill="#021A4D" opacity="1.000000" stroke="none" 
	d="
M89.080589,12.089530 
	C87.900414,11.947676 86.720238,11.805821 85.298798,11.403736 
	C105.054008,11.079554 125.050476,11.015603 145.509506,11.020996 
	C145.888763,11.429650 145.695709,11.686440 144.706116,11.934319 
	C125.706421,12.035131 107.393501,12.062330 89.080589,12.089530 
z"/>
<path fill="#FDE071" opacity="1.000000" stroke="none" 
	d="
M195.336792,394.920166 
	C195.088394,394.155060 195.081284,393.416992 195.140030,392.313568 
	C198.815170,392.302216 202.419937,392.895935 206.034592,392.964050 
	C215.856979,393.149200 225.683548,393.111755 236.009537,393.297180 
	C235.878174,393.949615 235.245758,394.467438 234.013443,394.671051 
	C221.521561,394.246338 209.629608,394.123444 197.737350,394.064423 
	C197.180801,394.061646 196.621445,394.628845 196.063400,394.930634 
	C196.063400,394.930634 195.578094,394.947144 195.336792,394.920166 
z"/>
<path fill="#FED22B" opacity="1.000000" stroke="none" 
	d="
M196.515686,395.044281 
	C196.621445,394.628845 197.180801,394.061646 197.737350,394.064423 
	C209.629608,394.123444 221.521561,394.246338 233.694290,394.665405 
	C221.639328,395.035309 209.303650,395.096619 196.515686,395.044281 
z"/>
<path fill="#1D3360" opacity="1.000000" stroke="none" 
	d="
M39.508877,11.035584 
	C35.437057,11.412481 30.908728,11.822542 26.371935,11.967292 
	C21.760969,12.114408 17.133930,11.845643 12.529819,12.076245 
	C10.696294,12.168079 8.905401,13.111105 6.682995,13.777590 
	C5.523138,10.638469 7.698990,10.910588 9.770632,10.917556 
	C19.529902,10.950377 29.289299,10.944442 39.508877,11.035584 
z"/>
<path fill="#536C87" opacity="1.000000" stroke="none" 
	d="
M197.920731,20.667229 
	C197.418365,23.752344 196.960938,26.377728 196.279617,30.288012 
	C196.279617,23.915499 196.279617,18.853642 196.279617,13.300685 
	C194.125458,13.150238 191.731354,12.983032 189.337234,12.815827 
	C189.320908,12.659055 189.304581,12.502283 189.288269,12.345511 
	C191.655304,12.115864 194.022354,11.886217 196.668045,11.381921 
	C197.120285,11.090660 197.293900,11.074049 197.722137,11.118422 
	C197.973068,14.188769 197.969360,17.198133 197.920731,20.667229 
z"/>
<path fill="#FDE071" opacity="1.000000" stroke="none" 
	d="
M238.816177,393.626953 
	C243.325287,393.564758 248.062561,393.831177 252.919922,394.475525 
	C248.374802,394.554199 243.709564,394.254883 238.816177,393.626953 
z"/>
<path fill="#45C28B" opacity="1.000000" stroke="none" 
	d="
M226.734100,11.105503 
	C226.965439,11.142944 226.664154,11.508245 226.664154,11.508245 
	C226.664154,11.508245 226.229156,11.454721 226.138687,11.318663 
	C226.048218,11.182605 226.502747,11.068061 226.734100,11.105503 
z"/>
<path fill="#45C28B" opacity="1.000000" stroke="none" 
	d="
M276.730103,11.070445 
	C276.700409,11.221336 276.439331,11.298312 276.098511,11.223618 
	C276.018768,11.071947 276.498718,10.996530 276.730103,11.070445 
z"/>
<path fill="#FDFBF7" opacity="1.000000" stroke="none" 
	d="
M19.083858,195.757812 
	C27.184366,195.074890 35.566017,195.291672 43.762047,194.161896 
	C52.723183,192.926620 61.688446,191.017914 70.331696,188.361023 
	C80.723335,185.166656 91.192696,181.700333 100.867767,176.838211 
	C111.890930,171.298584 122.640999,164.843307 132.500244,157.441376 
	C150.214218,144.142441 164.229645,127.137726 175.961960,108.468971 
	C185.642120,93.065681 191.908401,76.205360 194.016251,57.935120 
	C194.641357,52.517010 196.011169,47.184814 197.086761,41.393677 
	C197.431870,42.189560 197.989120,43.404732 197.990448,44.620514 
	C198.032745,83.455963 198.021240,122.291466 198.022079,162.057617 
	C198.064835,173.303802 198.103333,183.619339 198.141846,193.934875 
	C199.470367,194.324066 200.797409,195.045898 202.127625,195.051758 
	C218.113388,195.122147 234.099625,195.086487 251.011536,195.122986 
	C263.586304,195.045807 275.235291,194.924149 286.884247,194.802490 
	C302.961395,194.818970 319.039581,194.734421 335.115295,194.895584 
	C342.882690,194.973434 350.645447,195.513138 358.847046,195.938812 
	C350.169250,197.720047 340.854340,198.698364 331.974060,201.212067 
	C288.027954,213.651611 252.395401,237.654556 226.649033,276.139832 
	C211.132919,299.333069 203.331970,325.020325 197.946030,351.832550 
	C197.651672,353.297882 197.377533,354.767273 197.072205,356.869263 
	C197.050415,357.503754 197.108673,357.965912 197.108673,357.965912 
	C197.061447,358.426178 197.014221,358.886444 196.956726,360.102051 
	C196.662994,365.232056 196.379547,369.606689 196.096100,373.981354 
	C196.050430,374.439484 196.004745,374.897614 195.969391,376.062378 
	C196.000290,377.506195 196.020859,378.243408 196.041412,378.980591 
	C195.987167,379.430023 195.932922,379.879486 195.884247,380.872864 
	C195.889801,381.416840 195.873291,381.848145 195.705978,381.902649 
	C195.538666,381.957153 195.194275,382.029633 195.194275,382.029633 
	C191.185623,340.409882 176.460297,303.153046 150.074966,270.565979 
	C136.601044,253.925064 120.897232,239.690109 103.123131,227.933533 
	C78.156639,211.419586 50.494633,201.585327 20.969376,196.897842 
	C20.378098,196.803970 19.843983,196.350052 19.083858,195.757812 
z"/>
<path fill="#19B471" opacity="1.000000" stroke="none" 
	d="
M286.564270,194.555954 
	C275.235291,194.924149 263.586304,195.045807 251.478790,195.068039 
	C251.738800,194.653351 252.458267,194.061783 253.175781,194.064148 
	C264.198761,194.100342 275.221466,194.213882 286.564270,194.555954 
z"/>
<path fill="#2EBB7E" opacity="1.000000" stroke="none" 
	d="
M198.426758,193.638763 
	C198.103333,183.619339 198.064835,173.303802 198.081665,162.527100 
	C198.424316,165.763519 198.918869,169.459183 198.953751,173.159164 
	C199.017166,179.885635 198.807419,186.614670 198.426758,193.638763 
z"/>
<path fill="#FEDD5F" opacity="1.000000" stroke="none" 
	d="
M304.156311,393.007141 
	C305.010132,393.126099 305.468597,393.243042 307.313873,393.713745 
	C295.645294,393.713745 285.384064,393.713745 275.122833,393.713745 
	C275.120667,393.477539 275.118530,393.241302 275.116364,393.005096 
	C284.664581,393.005096 294.212769,393.005096 304.156311,393.007141 
z"/>
<path fill="#FED32F" opacity="1.000000" stroke="none" 
	d="
M196.461914,373.906799 
	C196.379547,369.606689 196.662994,365.232056 197.009811,360.446259 
	C199.108536,364.671844 199.628616,369.281586 196.461914,373.906799 
z"/>
<path fill="#FED32F" opacity="1.000000" stroke="none" 
	d="
M195.873291,381.848145 
	C195.873291,381.848145 195.889801,381.416840 195.946213,381.208557 
	C196.194016,383.493286 196.385391,385.986328 196.294037,388.296204 
	C195.965317,386.024780 195.919296,383.936462 195.873291,381.848145 
z"/>
<path fill="#FDE071" opacity="1.000000" stroke="none" 
	d="
M195.705978,381.902649 
	C195.919296,383.936462 195.965317,386.024780 196.023224,388.557068 
	C196.035126,389.001038 195.620834,389.022949 195.413757,389.035004 
	C195.171143,386.998566 195.135620,384.950104 195.147186,382.465637 
	C195.194275,382.029633 195.538666,381.957153 195.705978,381.902649 
z"/>
<path fill="#FED32F" opacity="1.000000" stroke="none" 
	d="
M196.283142,378.802917 
	C196.020859,378.243408 196.000290,377.506195 196.032990,376.403381 
	C196.232452,376.900238 196.378647,377.762756 196.283142,378.802917 
z"/>
<path fill="#FED32F" opacity="1.000000" stroke="none" 
	d="
M197.257660,357.889923 
	C197.108673,357.965912 197.050415,357.503754 197.109421,357.278473 
	C197.168427,357.053192 197.516525,357.383850 197.516525,357.383850 
	C197.516525,357.383850 197.406631,357.813934 197.257660,357.889923 
z"/>
<path fill="#3D587B" opacity="1.000000" stroke="none" 
	d="
M89.375687,12.369070 
	C107.393501,12.062330 125.706421,12.035131 144.481201,12.035357 
	C144.376846,12.359020 143.809830,12.915482 143.244522,12.913742 
	C125.386505,12.858772 107.528656,12.749573 89.375687,12.369070 
z"/>
</svg>